<?xml version="1.0" encoding="utf-8"?>
<!-- Svg Vector Icons : http://www.onlinewebfonts.com/icon -->
<!DOCTYPE svg PUBLIC "-//W3C//DTD SVG 1.1//EN" "http://www.w3.org/Graphics/SVG/1.1/DTD/svg11.dtd">
<svg version="1.1" xmlns="http://www.w3.org/2000/svg" xmlns:xlink="http://www.w3.org/1999/xlink" x="0px" y="0px" viewBox="0 0 256 256" enable-background="new 0 0 256 256" xml:space="preserve">
<metadata> Svg Vector Icons : http://www.onlinewebfonts.com/icon </metadata>
<g><g><g><path fill="#000000" d="M96.2,10.2c-0.7,0.2-1.9,0.6-2.5,0.9c-1.5,0.8-71.3,70.4-72.5,72.3c-0.5,0.8-3.3,11-6.2,22.8c-5.8,23.5-5.8,23.3-3.4,27.1c1.5,2.3,5,4.3,7.7,4.3c1.4,0,38.2-9,42.6-10.4c1.8-0.6,6.5-5.1,38.4-37.1c38.6-38.6,37.3-37.2,37.3-41.4c0-3.4-1.5-5.1-17.2-20.9c-8.4-8.4-16.2-15.9-17.2-16.5C101,10.2,98.2,9.7,96.2,10.2z M106.3,41.2l7.8,7.8l-8,8L98.3,65L90.3,57l-8-8l7.8-7.8c4.3-4.3,7.9-7.8,8.1-7.8C98.4,33.3,102,36.9,106.3,41.2z M76.8,70.7l7.8,7.8L69.2,94l-15.4,15.4l-10.4,2.6c-5.7,1.4-10.4,2.5-10.5,2.4c0-0.1,1.1-4.9,2.5-10.7l2.7-10.5l15.1-15.2c8.4-8.4,15.3-15.2,15.4-15.2C68.8,62.9,72.5,66.4,76.8,70.7z"/><path fill="#000000" d="M202.1,50.6c-3.9,2.1-4.1,2.5-9.5,26.3l-5,21.6h-34.7h-34.8v9.7v9.7h32.3c30.5,0,32.3,0,32.3,0.8c0,0.7-12.6,55.7-13.2,58c-0.2,0.7-2.5,0.8-41.9,0.7l-41.6-0.1l-3.6-14.7l-3.6-14.6h-9.9c-7.6,0-9.9,0.1-9.9,0.6c0,0.3,2.4,10,5.3,21.5c5.9,23.5,6,23.9,10.1,25.8l2.4,1.1h51h51l2.4-1.1c4.4-2.1,3.5,1.3,17.7-60.7c7.1-30.7,13.4-58.1,14.1-60.9l1.2-5.2h15.9H246v-9.7v-9.7h-20.9h-21L202.1,50.6z"/><path fill="#000000" d="M83.7,207.6c-3.4,0.8-6.9,2.9-9.5,5.7c-9.7,10.2-5.3,27.4,8.1,31.7c3.5,1.1,5.7,1.3,9,0.8c8.4-1.3,14.8-7.8,16.3-16.4c1.9-11.4-7.6-22.4-19.3-22.3C87.1,207,85,207.3,83.7,207.6z"/><path fill="#000000" d="M162.4,207.6c-9.9,2.7-16.1,12.2-14.4,22.1c2.2,12.9,15.7,19.9,27.6,14.3c11.7-5.5,14.7-21.2,5.7-30.7C176.5,208,168.9,205.8,162.4,207.6z"/></g></g></g>
</svg>